<?xml version="1.0" encoding="UTF-8" standalone="no"?>
<!-- Created with Inkscape (http://www.inkscape.org/) -->

<svg
   version="1.1"
   id="svg1"
   width="254.42105"
   height="95.787842"
   viewBox="0 0 254.42105 95.787844"
   xmlns="http://www.w3.org/2000/svg"
   xmlns:svg="http://www.w3.org/2000/svg">
  <defs
     id="defs1">
    <clipPath
       clipPathUnits="userSpaceOnUse"
       id="clipPath2">
      <path
         d="M 0,158.74 H 277.795 V 0 H 0 Z"
         transform="translate(-66.140002,-94.914603)"
         id="path2" />
    </clipPath>
    <clipPath
       clipPathUnits="userSpaceOnUse"
       id="clipPath4">
      <path
         d="M 0,158.74 H 277.795 V 0 H 0 Z"
         transform="translate(-227.14981,-59.723299)"
         id="path4" />
    </clipPath>
  </defs>
  <g
     id="layer-MC0"
     transform="translate(-58.702667,-58.064681)">
    <path
       id="path1"
       d="M 0,0 C 0.084,0.04 3.269,1.273 5.914,-0.965 L 5.476,-1.892 c 0,0 -1.621,0.666 -2.17,0.598 L 3.28,-1.4 C 3.631,-1.843 3.446,-2.469 3.096,-2.729 l -1.21,-0.152 -0.39,1.085 -0.125,0.344 C 1.027,-1.563 0.83,-1.687 0.794,-1.715 L 0,0 m 13.36,-49.619 c 0.567,4.017 1.532,9.41 2.063,12.301 2.145,-2.485 4.33,-8.154 4.33,-8.154 0,0 11.302,3.447 17.634,13.554 l 0.002,0.003 1.744,-1.425 C 30.505,-46.352 17.384,-49.182 13.36,-49.619 M -3.3,-33.112 c 3.314,-1.102 6.247,-1.511 7.929,-1.661 v -0.002 c -0.82,-1.767 -1.511,-3.655 -2.113,-5.48 -2.338,-2.168 -4.419,-2.635 -5.039,-2.604 -0.516,0.435 -1.899,2.213 -2.35,4.716 0.657,1.817 1.16,3.492 1.573,5.031 m -5.343,-9.451 c -2.391,1.31 -4.737,3.478 -5.714,4.432 2.717,3.05 5.25,4.998 6.435,5.182 0.655,0.102 1.311,0.03 1.602,-0.821 0.302,-0.89 0.035,-2.454 -0.523,-4.237 l -0.009,-0.001 0.003,-0.017 c -0.455,-1.45 -1.102,-3.043 -1.794,-4.538 m -8.394,3.966 c -1.216,1.247 -2.284,2.6 -2.871,3.549 l 1.492,1.176 c 0.703,-0.892 1.816,-2.215 2.769,-3.165 -0.368,-0.391 -0.998,-1.119 -1.39,-1.56 m 18.194,17.319 0.031,-0.05 c -3.712,-2.952 -5.452,-8.915 -6.031,-11.22 l -0.07,0.006 c -0.248,0.667 -0.662,1.202 -1.253,1.386 -0.709,0.221 -2.57,0.83 -8.297,-4.596 -1.369,1.368 -2.668,3.157 -3.347,4.084 2.909,2.352 12.947,8.697 18.967,10.39 m 3.043,0.444 -0.039,-2.257 c 0,0 1.288,-0.954 3.85,-0.896 5.291,0.083 9.614,2.704 11.51,4.675 l 0.068,-0.057 c 0,0 -2.928,-5.516 -8.081,-7.373 -2.526,-0.91 -4.458,-3.382 -6.021,-6.297 v 0 c -1.327,0.083 -4.591,0.408 -8.32,1.661 1.271,4.3 2.989,7.917 7.033,10.544 m -2.653,4.45 c -0.856,-0.101 -1.863,0.426 -1.838,1.858 0.007,0.346 0.086,1.205 0.086,1.205 0,0 -0.393,0.453 -0.624,0.756 0.761,0.049 2.093,0.25 3.562,0.825 l -0.214,1.077 c -1.383,-0.263 -2.584,-0.325 -4.033,-0.02 0.169,1.921 -0.417,2.287 -0.417,2.287 0,0 -1.684,-0.36 -1.907,-0.309 -0.223,0.051 -0.328,0.15 -0.392,0.271 -0.115,0.218 -0.09,0.788 0.346,1.652 1.447,2.87 2.927,6.099 2.927,6.099 0,0 -0.394,1.602 0.028,2.898 0.218,0.668 0.778,1.765 1.161,2.607 C 0.259,4.819 3.924,4.639 6.336,3.617 8.411,2.737 8.898,-0.378 8.805,-2.304 l 1.794,-0.493 c 0,0 1.418,1.788 2.741,1.262 1.873,-0.744 0.448,-3.603 -0.08,-4.446 -0.322,-0.516 -0.949,-1.081 -1.585,-1.121 -0.188,-0.011 -0.641,-0.058 -1.063,0.34 l -0.513,-0.846 c 0.385,-0.564 0.878,-0.906 1.497,-0.984 1.017,-0.128 1.957,0.57 2.372,0.964 1.125,-1.793 3.026,-2.94 3.687,-3.127 -0.051,-1.883 0.475,-4.42 2.79,-5.699 -3.498,-3.882 -10.295,-6.906 -14.561,-5.49 l -0.07,5.041 c 2.043,1.019 4.099,2.678 5.49,5.247 l -0.974,0.595 C 8.338,-14.75 3.955,-16.102 1.547,-16.384 m -14.463,12.4 c 1.449,0.432 3.292,1.435 5.702,3.335 l -0.753,0.965 c -2.909,-2.186 -6.167,-3.685 -7.913,-2.517 -1.224,0.818 -1.944,2.728 -1.794,4.959 0.19,2.819 1.99,6.015 5.396,8.185 1.233,-1.212 3.125,-2.303 5.639,-3.246 l 0.601,1.15 c -2.591,0.973 -3.928,2.261 -4.725,3.188 2.307,2.178 4.883,3.908 7.905,4.904 2.31,0.761 4.876,1.088 7.614,1.211 -0.05,-1.086 0.078,-2.224 1.321,-4.442 l 1.268,0.249 c -0.953,2.273 -0.805,3.43 -0.677,4.363 4.114,0.509 7.734,0.237 10.761,-0.566 3.664,-0.971 6.47,-2.693 8.349,-4.421 -0.383,-0.811 -1.265,-2.142 -3.284,-3.401 l 0.938,-0.756 c 2.273,0.92 3.382,2.123 3.923,3.022 1.85,-1.166 5.619,-4.023 5.825,-8.129 0.069,-1.378 -0.219,-2.778 -1.206,-3.813 -0.79,-0.829 -2.487,-1.861 -4.445,-1.477 l -0.231,-1.173 c 0.513,-0.102 2.52,-0.455 4.074,0.43 l 0.077,-0.058 v -0.007 l 0.02,0.007 0.003,10e-4 c -0.711,-3.248 -4.799,-4.092 -7.69,-3.918 2.016,4.611 0.178,9.321 0.16,9.362 0,0 -2.572,4.297 -10.038,6.252 C 5.628,11.843 -1.011,9.54 -2.802,8.842 l 0.384,-1.038 c 0.97,0.276 2.771,0.631 2.771,0.631 L 0.373,8.398 C -1.008,6.688 -2.282,3.851 -2.602,2.935 -3.025,1.718 -2.879,0.13 -2.783,-0.498 -3.219,-1.433 -4.184,-3.287 -5.362,-5.54 c -1.214,-0.327 -5.186,-1.4 -7.554,1.556 m 31.679,-5.437 c -2.125,0.679 -3.266,2.475 -3.708,3.263 0.865,1.57 1.128,3.043 0.814,4.164 -0.256,0.923 -0.749,1.521 -1.748,1.963 -1.567,0.699 -2.921,0.009 -3.802,-1.019 l -0.096,0.028 C 10.353,0.549 9.64,4.042 6.986,5.274 5.686,5.876 3.198,6.192 1.091,6.48 1.719,7.717 2.477,8.483 2.9,8.772 14.443,10.495 21.591,4.099 22.584,2.562 24.711,-4.581 20.082,-8.863 18.763,-9.421 m -6.952,-38.412 c -4.091,-0.18 -7.9,0.585 -9.336,0.935 0.207,0.822 0.78,3.319 1.049,4.218 0.979,3.265 4.033,8.689 7.825,8.522 0.807,-0.032 1.697,-0.553 2.574,-1.405 h 0.002 c -0.36,-1.897 -1.408,-7.597 -2.114,-12.27 m 25.141,18.855 c -2.567,-5.448 -8.173,-10.67 -16.175,-14.22 -1.242,2.85 -5.329,11.056 -9.633,11.094 -1.737,0.013 -3.307,-1.231 -4.239,-2.311 l -0.102,0.034 c 1.279,2.949 3.428,5.304 5.426,6.105 6.566,2.633 8.894,8.138 9.887,10.88 3.043,-1.896 10.16,-6.45 14.836,-11.582 m 1.389,-1.276 10e-4,0.002 c 0.339,0.66 0.737,1.424 0.769,1.501 0,0 -6.308,6.963 -15.532,12.276 0,0 -2.306,1.357 -2.939,1.888 -1.082,0.908 -1.335,1.876 -1.285,3.603 0.577,0.321 2.799,1.744 3.647,3.586 4.42,-0.508 10.276,0.758 10.502,6.659 1.192,1.484 1.729,3.396 1.515,5.109 -0.613,4.887 -3.407,7.114 -7.507,9.797 -5.004,5.125 -13.806,7.144 -21.915,5.607 -3.718,-0.049 -6.701,-0.451 -9.216,-1.273 -3.642,-1.191 -6.319,-3.208 -8.953,-5.856 -1.085,-0.656 -6.496,-3.985 -6.911,-9.51 -0.307,-4.094 1.575,-6.994 4.53,-7.356 2.012,-2.691 3.748,-3.421 6.503,-3.376 0.996,0.016 1.796,0.135 2.405,0.265 -0.149,-0.756 -0.074,-1.424 0.222,-1.964 0.576,-1.057 1.4,-1.139 1.759,-1.157 0.36,-0.018 1.055,0.135 1.055,0.135 0,-1.959 0.701,-2.98 1.221,-3.594 -0.18,-0.842 -0.237,-2.083 0.693,-3.226 1.327,-1.627 4.379,-0.649 5.353,-0.358 v -0.002 l -0.026,-1.677 c -1.804,-0.224 -3.865,-0.705 -5.899,-1.475 -8.865,-3.354 -18.603,-10.69 -18.603,-10.69 0,0 0.663,-0.938 0.881,-1.243 l -2.724,-2.004 c 1.801,-3.396 5.315,-6.442 5.315,-6.442 0,0 1.029,1.232 1.217,1.462 1.104,-0.969 3.645,-3.091 6.215,-4.492 -0.212,-0.477 -0.668,-1.385 -0.787,-1.581 l 1.494,-0.839 c 1.208,2.297 2.003,3.92 2.688,5.542 0.535,-1.103 1.189,-1.92 1.71,-2.458 -0.855,-0.421 -1.541,-1.335 -1.8,-2.222 -0.404,-1.382 0.288,-2.565 1.497,-2.96 0.981,-0.322 2.346,-0.11 3.032,1.356 0.403,0.86 0.294,1.848 0.011,2.879 0.804,0.097 1.88,0.367 3.089,1.032 l -0.001,-0.004 c -0.077,-0.249 -1.181,-4.115 -1.64,-6.758 l 1.749,-0.346 c 0.103,0.506 0.23,1.105 0.379,1.763 1.764,-0.376 6.196,-1.032 9.505,-0.788 -0.047,-0.34 -0.278,-2.121 -0.278,-2.121 22.493,2.081 29.978,18.612 29.978,18.612 z"
       style="fill:#2350a9;fill-opacity:1;fill-rule:nonzero;stroke:none"
       transform="matrix(1.3333333,0,0,-1.3333333,88.186667,85.100533)"
       clip-path="url(#clipPath2)" />
    <path
       id="path3"
       d="m 0,0 -0.196,-0.591 c -0.19,-0.581 -0.485,-1.081 -0.885,-1.495 -0.4,-0.416 -0.943,-0.625 -1.627,-0.625 -0.249,0 -0.486,0.016 -0.712,0.045 -0.226,0.03 -0.418,0.059 -0.578,0.087 v -2.578 c 0.203,-0.043 0.44,-0.084 0.71,-0.12 0.27,-0.037 0.587,-0.055 0.951,-0.055 1.137,0 2.138,0.31 3.004,0.929 0.868,0.618 1.526,1.548 1.977,2.786 l 5.049,13.46 H 4.197 L 1.99,5.135 C 1.887,4.815 1.796,4.483 1.716,4.141 1.636,3.798 1.574,3.437 1.531,3.058 H 1.465 C 1.435,3.437 1.392,3.798 1.334,4.141 1.275,4.483 1.188,4.815 1.072,5.135 l -2.251,6.708 h -3.562 z m -7.494,2.294 c -0.423,0 -0.765,0.114 -1.028,0.34 -0.261,0.226 -0.393,0.563 -0.393,1.015 v 5.747 h 3.343 v 2.447 h -3.343 v 2.536 h -2.075 l -0.941,-2.512 -1.791,-1.094 V 9.396 h 1.551 V 3.649 c 0,-1.019 0.164,-1.817 0.493,-2.392 0.327,-0.576 0.771,-0.98 1.332,-1.213 0.56,-0.232 1.198,-0.35 1.911,-0.35 0.612,0 1.178,0.055 1.695,0.164 0.516,0.11 0.95,0.236 1.3,0.382 V 2.666 C -5.776,2.564 -6.11,2.477 -6.445,2.404 -6.781,2.331 -7.131,2.294 -7.494,2.294 m -8.436,9.55 h -3.256 V -0.087 h 3.256 z m -1.616,4.676 c -0.496,0 -0.914,-0.114 -1.256,-0.339 -0.343,-0.226 -0.514,-0.644 -0.514,-1.256 0,-0.597 0.171,-1.014 0.514,-1.247 0.342,-0.232 0.76,-0.348 1.256,-0.348 0.48,0 0.896,0.116 1.245,0.348 0.35,0.233 0.524,0.65 0.524,1.247 0,0.612 -0.174,1.03 -0.524,1.256 -0.349,0.225 -0.765,0.339 -1.245,0.339 M -21.72,3.453 c 0,0.713 -0.135,1.293 -0.404,1.737 -0.27,0.443 -0.652,0.815 -1.147,1.114 -0.496,0.298 -1.086,0.586 -1.771,0.864 -0.699,0.29 -1.227,0.524 -1.583,0.699 -0.357,0.174 -0.597,0.338 -0.722,0.491 -0.124,0.152 -0.184,0.325 -0.184,0.513 0,0.525 0.48,0.786 1.442,0.786 0.539,0 1.07,-0.083 1.595,-0.25 0.524,-0.167 1.078,-0.376 1.661,-0.623 l 0.981,2.339 c -0.713,0.334 -1.404,0.574 -2.075,0.72 -0.67,0.146 -1.376,0.219 -2.12,0.219 -1.428,0 -2.571,-0.278 -3.43,-0.831 -0.861,-0.553 -1.289,-1.383 -1.289,-2.491 0,-0.671 0.115,-1.227 0.35,-1.672 0.233,-0.444 0.589,-0.823 1.071,-1.136 0.48,-0.313 1.092,-0.63 1.835,-0.95 0.772,-0.32 1.339,-0.583 1.703,-0.787 0.365,-0.203 0.602,-0.386 0.712,-0.546 0.108,-0.16 0.163,-0.342 0.163,-0.546 0,-0.306 -0.135,-0.553 -0.403,-0.744 -0.271,-0.188 -0.726,-0.282 -1.366,-0.282 -0.569,0 -1.225,0.094 -1.967,0.282 -0.743,0.191 -1.435,0.431 -2.077,0.722 V 0.393 c 0.598,-0.248 1.195,-0.425 1.793,-0.536 0.597,-0.108 1.31,-0.163 2.141,-0.163 1.689,0 2.961,0.323 3.812,0.972 0.854,0.648 1.279,1.578 1.279,2.787 m -11.582,8.609 c -0.8,0 -1.508,-0.219 -2.12,-0.656 -0.611,-0.436 -1.092,-0.96 -1.442,-1.572 h -0.153 l -0.48,2.009 h -2.47 v -11.93 h 3.256 v 6.074 c 0,0.758 0.157,1.355 0.471,1.793 0.313,0.436 0.724,0.754 1.234,0.949 0.509,0.198 1.041,0.296 1.596,0.296 0.145,0 0.316,-0.011 0.513,-0.032 0.196,-0.023 0.345,-0.048 0.449,-0.077 l 0.24,3.059 c -0.132,0.028 -0.306,0.051 -0.525,0.066 -0.219,0.014 -0.409,0.021 -0.569,0.021 M -47.941,9.746 c 0.772,0 1.339,-0.238 1.704,-0.711 0.364,-0.473 0.553,-1.074 0.569,-1.803 h -4.569 c 0.073,0.86 0.317,1.493 0.733,1.902 0.414,0.408 0.935,0.612 1.563,0.612 m -0.023,2.315 c -1.122,0 -2.106,-0.233 -2.95,-0.699 -0.845,-0.465 -1.505,-1.161 -1.978,-2.087 -0.473,-0.925 -0.709,-2.086 -0.709,-3.486 0,-1.369 0.261,-2.505 0.786,-3.407 0.524,-0.903 1.246,-1.577 2.164,-2.022 0.917,-0.444 1.974,-0.667 3.169,-0.667 0.917,0 1.7,0.07 2.349,0.208 0.647,0.139 1.263,0.352 1.846,0.644 v 2.513 c -0.671,-0.32 -1.32,-0.557 -1.946,-0.71 -0.626,-0.153 -1.324,-0.229 -2.096,-0.229 -0.918,0 -1.636,0.263 -2.154,0.786 -0.517,0.525 -0.789,1.247 -0.82,2.164 h 7.693 v 1.574 c 0,1.732 -0.482,3.069 -1.442,4.01 -0.962,0.939 -2.265,1.408 -3.912,1.408 m -11.166,-12.149 4.545,11.932 h -3.408 L -60.287,5.049 C -60.565,4.201 -60.725,3.387 -60.769,2.6 h -0.088 c -0.014,0.349 -0.062,0.742 -0.142,1.181 -0.08,0.436 -0.185,0.858 -0.316,1.268 l -2.294,6.795 h -3.409 l 4.545,-11.932 z m -9.594,11.932 H -71.98 V -0.087 h 3.256 z m -1.616,4.676 c -0.496,0 -0.914,-0.114 -1.255,-0.339 -0.344,-0.226 -0.514,-0.644 -0.514,-1.256 0,-0.597 0.17,-1.014 0.514,-1.247 0.341,-0.232 0.759,-0.348 1.255,-0.348 0.48,0 0.896,0.116 1.245,0.348 0.35,0.233 0.524,0.65 0.524,1.247 0,0.612 -0.174,1.03 -0.524,1.256 -0.349,0.225 -0.765,0.339 -1.245,0.339 m -9.221,-4.458 c -0.743,0 -1.446,-0.139 -2.109,-0.414 -0.663,-0.278 -1.184,-0.722 -1.563,-1.334 h -0.174 l -0.438,1.529 h -2.491 v -11.93 h 3.256 v 5.616 c 0,1.267 0.183,2.24 0.547,2.916 0.363,0.677 1.041,1.017 2.031,1.017 0.671,0 1.16,-0.215 1.466,-0.645 0.305,-0.429 0.458,-1.074 0.458,-1.933 v -6.971 h 3.256 v 7.78 c 0,1.529 -0.387,2.639 -1.159,3.33 -0.772,0.692 -1.798,1.039 -3.08,1.039 m -10.337,3.453 h -3.299 V 5.987 c 0,-1.209 -0.245,-2.098 -0.732,-2.665 -0.488,-0.569 -1.272,-0.852 -2.35,-0.852 -1.034,0 -1.813,0.261 -2.338,0.786 -0.525,0.524 -0.786,1.428 -0.786,2.71 v 9.549 h -3.3 V 5.463 c 0,-1.734 0.538,-3.128 1.618,-4.185 1.077,-1.056 2.651,-1.584 4.719,-1.584 1.457,0 2.662,0.251 3.617,0.754 0.954,0.503 1.668,1.188 2.141,2.054 0.473,0.866 0.71,1.839 0.71,2.918 z m 73.554,17.682 c 0.873,0 1.508,-0.276 1.901,-0.83 0.393,-0.554 0.59,-1.471 0.59,-2.753 v -0.393 c 0,-1.181 -0.201,-2.008 -0.601,-2.481 -0.402,-0.473 -1.017,-0.71 -1.846,-0.71 -1.559,0 -2.338,1.187 -2.338,3.562 0,2.403 0.765,3.605 2.294,3.605 m -1.028,2.644 c -1.428,0 -2.548,-0.546 -3.364,-1.637 -0.817,-1.094 -1.224,-2.616 -1.224,-4.569 0,-1.936 0.397,-3.448 1.192,-4.533 0.793,-1.086 1.897,-1.629 3.309,-1.629 0.715,0 1.355,0.139 1.924,0.416 0.567,0.276 1.055,0.728 1.464,1.354 h 0.087 c -0.014,-0.203 -0.032,-0.436 -0.055,-0.699 -0.022,-0.262 -0.032,-0.518 -0.032,-0.765 v -0.24 c 0,-1.807 -0.838,-2.71 -2.513,-2.71 -1.633,0 -3.183,0.306 -4.656,0.918 v -2.6 c 0.685,-0.262 1.389,-0.445 2.109,-0.546 0.722,-0.102 1.505,-0.153 2.35,-0.153 1.966,0 3.453,0.444 4.458,1.332 1.004,0.889 1.508,2.185 1.508,3.891 v 11.952 h -2.753 l -0.263,-1.53 h -0.087 c -0.831,1.165 -1.981,1.748 -3.454,1.748 m -6.905,0 c -0.8,0 -1.508,-0.219 -2.12,-0.656 -0.611,-0.436 -1.092,-0.96 -1.442,-1.572 h -0.153 l -0.48,2.009 h -2.47 v -11.93 h 3.256 v 6.074 c 0,0.758 0.157,1.355 0.471,1.793 0.313,0.436 0.724,0.754 1.234,0.949 0.509,0.198 1.041,0.296 1.596,0.296 0.145,0 0.316,-0.011 0.513,-0.032 0.196,-0.023 0.345,-0.048 0.449,-0.077 l 0.24,3.059 c -0.132,0.028 -0.306,0.051 -0.525,0.066 -0.219,0.014 -0.409,0.021 -0.569,0.021 m -13.328,-0.219 v -5.616 c 0,-1.266 -0.183,-2.239 -0.546,-2.916 -0.365,-0.678 -1.042,-1.017 -2.033,-1.017 -0.67,0 -1.157,0.218 -1.463,0.656 -0.306,0.437 -0.459,1.077 -0.459,1.922 v 6.971 h -3.256 v -7.778 c 0,-1.53 0.386,-2.641 1.158,-3.333 0.771,-0.692 1.799,-1.038 3.08,-1.038 0.743,0 1.445,0.138 2.109,0.416 0.663,0.275 1.184,0.72 1.563,1.332 h 0.174 l 0.438,-1.53 h 2.491 v 11.931 z m -15.93,-2.381 c 0.685,0 1.227,-0.295 1.629,-0.886 0.4,-0.59 0.601,-1.467 0.601,-2.633 0,-1.165 -0.197,-2.058 -0.59,-2.677 -0.393,-0.618 -0.927,-0.928 -1.596,-0.928 -0.903,0 -1.525,0.31 -1.869,0.928 -0.341,0.619 -0.513,1.505 -0.513,2.655 v 0.351 c 0.03,1.077 0.215,1.879 0.558,2.402 0.341,0.525 0.935,0.788 1.78,0.788 m -2.338,7.058 h -3.256 V 23.692 h 2.491 l 0.546,1.31 h 0.219 c 0.32,-0.393 0.732,-0.747 1.235,-1.06 0.502,-0.313 1.19,-0.469 2.065,-0.469 1.369,0 2.475,0.524 3.322,1.574 0.845,1.049 1.266,2.592 1.266,4.632 0,2.024 -0.414,3.558 -1.245,4.601 -0.83,1.04 -1.915,1.561 -3.256,1.561 -0.859,0 -1.559,-0.171 -2.098,-0.514 -0.539,-0.342 -0.969,-0.761 -1.289,-1.256 h -0.13 c 0.028,0.248 0.057,0.591 0.087,1.027 0.028,0.437 0.043,0.882 0.043,1.333 z m -6.513,-4.458 c -0.8,0 -1.508,-0.219 -2.12,-0.656 -0.611,-0.436 -1.092,-0.96 -1.442,-1.572 h -0.153 l -0.48,2.009 h -2.47 v -11.93 h 3.256 v 6.074 c 0,0.758 0.157,1.355 0.471,1.793 0.313,0.436 0.724,0.754 1.234,0.949 0.509,0.198 1.041,0.296 1.596,0.296 0.145,0 0.316,-0.011 0.513,-0.032 0.196,-0.023 0.345,-0.048 0.449,-0.077 l 0.24,3.059 c -0.132,0.028 -0.306,0.051 -0.525,0.066 -0.219,0.014 -0.409,0.021 -0.569,0.021 M -75.627,29.22 v -0.983 c 0,-0.757 -0.24,-1.344 -0.722,-1.759 -0.48,-0.416 -1.071,-0.622 -1.769,-0.622 -0.466,0 -0.845,0.105 -1.137,0.316 -0.291,0.21 -0.437,0.564 -0.437,1.06 0,0.568 0.204,1.026 0.611,1.377 0.408,0.348 1.137,0.539 2.186,0.567 z m -1.727,6.642 c -0.844,0 -1.657,-0.094 -2.436,-0.282 -0.779,-0.191 -1.49,-0.452 -2.13,-0.788 l 1.07,-2.207 c 0.553,0.247 1.106,0.455 1.661,0.622 0.553,0.169 1.122,0.253 1.704,0.253 0.583,0 1.038,-0.146 1.365,-0.438 0.329,-0.291 0.493,-0.75 0.493,-1.376 v -0.525 l -2.077,-0.065 c -1.777,-0.059 -3.11,-0.39 -3.998,-0.994 -0.889,-0.605 -1.333,-1.54 -1.333,-2.808 0,-1.282 0.35,-2.234 1.049,-2.853 0.699,-0.619 1.581,-0.928 2.644,-0.928 0.991,0 1.769,0.146 2.339,0.437 0.567,0.292 1.106,0.758 1.616,1.398 h 0.087 l 0.633,-1.616 h 2.273 v 7.954 c 0,1.428 -0.425,2.488 -1.277,3.18 -0.854,0.691 -2.081,1.036 -3.683,1.036 m -18.64,-12.17 -3.759,12.236 h -0.087 c 0.014,-0.291 0.037,-0.727 0.065,-1.31 0.029,-0.583 0.059,-1.206 0.087,-1.869 0.031,-0.662 0.045,-1.263 0.045,-1.802 v -7.255 h -2.95 v 15.603 h 4.501 l 3.693,-11.933 h 0.066 l 3.91,11.933 h 4.503 V 23.692 h -3.082 v 7.385 c 0,0.496 0.011,1.064 0.032,1.706 0.023,0.64 0.045,1.248 0.066,1.824 0.023,0.575 0.041,1.008 0.055,1.3 h -0.087 l -4.021,-12.215 z"
       style="fill:#2350a9;fill-opacity:1;fill-rule:nonzero;stroke:none"
       transform="matrix(1.3333333,0,0,-1.3333333,302.8664,132.02227)"
       clip-path="url(#clipPath4)" />
  </g>
</svg>
