<?xml version="1.0" encoding="UTF-8" standalone="no"?>
<!-- Created with Inkscape (http://www.inkscape.org/) -->

<svg
   width="51.834217mm"
   height="14.9865mm"
   viewBox="0 0 51.834217 14.9865"
   version="1.1"
   id="svg1"
   xmlns="http://www.w3.org/2000/svg"
   xmlns:svg="http://www.w3.org/2000/svg">
   <style>
        path { fill: #1e2939; }
        ellipse { fill: #1e2939; }
        @media (prefers-color-scheme: dark) {
            path { fill: white; }
            ellipse { fill: white; }
        }
    </style>

  <defs
     id="defs1">
    <clipPath
       clipPathUnits="userSpaceOnUse"
       id="clipPath5-3-1-5">
      <rect
         style="fill:none;stroke:#000000;stroke-width:0.405694;stroke-linecap:round;stroke-linejoin:bevel;paint-order:stroke fill markers"
         id="rect6-6-1-7"
         width="26.030811"
         height="9.4101992"
         x="104.61209"
         y="126.85438"
         transform="rotate(90)" />
    </clipPath>
  </defs>
  <g
     id="layer1"
     transform="translate(-74.267703,-34.246768)">
    <path
       style="-inkscape-font-specification:'Noto Sans Semi-Bold';stroke-width:0.405694;stroke-linecap:round;stroke-linejoin:bevel;paint-order:stroke fill markers"
       d="m 86.196785,48.971088 h -3.437468 v -6.045202 h 3.437468 V 43.83182 H 83.84305 v 1.540934 h 2.201334 v 0.905933 H 83.84305 v 1.778001 h 2.353735 z"
       id="text1-5-5-9-2-2"
       aria-label="E" />
    <g
       id="g6-4-2-0"
       transform="translate(-36.569729,-62.497604)">
      <ellipse
         style="stroke-width:0.405694;stroke-linecap:round;stroke-linejoin:bevel;paint-order:stroke fill markers"
         id="path4-9-69-3"
         cx="111.75572"
         cy="106.22731"
         rx="0.8000254"
         ry="0.91431475" />
      <ellipse
         style="stroke-width:0.405694;stroke-linecap:round;stroke-linejoin:bevel;paint-order:stroke fill markers"
         id="path4-5-1-6-9"
         cx="116.82122"
         cy="106.22731"
         rx="0.8000254"
         ry="0.91431475" />
      <path
         style="-inkscape-font-specification:'Noto Sans Semi-Bold';stroke-width:0.405694;stroke-linecap:round;stroke-linejoin:bevel;paint-order:stroke fill markers"
         d="m -127.28057,116.09233 q -0.4064,0 -0.7366,0.1524 -0.3302,0.14393 -0.5588,0.4318 -0.2286,0.28787 -0.3556,0.69427 -0.11853,0.4064 -0.11853,0.9144 0,0.67733 0.19473,1.1684 0.2032,0.49106 0.60113,0.75353 0.4064,0.254 1.00754,0.254 0.39793,0 0.75353,-0.0847 0.36407,-0.0847 0.71967,-0.2032 v 0.93134 q -0.3556,0.14393 -0.74507,0.21167 -0.381,0.0677 -0.87207,0.0677 -0.9398,0 -1.56633,-0.381 -0.61807,-0.38947 -0.92287,-1.08374 -0.3048,-0.70273 -0.3048,-1.64253 0,-0.6858 0.18627,-1.25307 0.19473,-0.56726 0.56727,-0.98213 0.37253,-0.42333 0.9144,-0.64347 0.54186,-0.2286 1.2446,-0.2286 0.4572,0 0.90593,0.1016 0.4572,0.0931 0.8382,0.2794 l -0.37253,0.889 q -0.3048,-0.14393 -0.64347,-0.24553 -0.33866,-0.1016 -0.7366,-0.1016 z"
         id="text4-0-7-4-9"
         clip-path="url(#clipPath5-3-1-5)"
         transform="rotate(-90,-11.30446,-7.1493076)"
         aria-label="C" />
    </g>
    <path
       style="-inkscape-font-specification:'Noto Sans Semi-Bold';stroke-width:0.405694;stroke-linecap:round;stroke-linejoin:bevel;paint-order:stroke fill markers"
       d="m 76.866984,40.67065 -1.659467,-4.953001 h -0.03387 q 0.0085,0.169333 0.0254,0.4826 0.01693,0.3048 0.0254,0.668867 0.01693,0.3556 0.01693,0.668867 v 3.132667 h -0.973668 v -6.045202 h 1.507068 l 1.591734,4.749802 h 0.03387 l 1.659468,-4.749802 h 1.507067 v 6.045202 h -1.032934 v -3.183467 q 0,-0.287867 0.0085,-0.626534 0.01693,-0.347134 0.0254,-0.651934 0.01693,-0.313266 0.0254,-0.4826 h -0.03387 l -1.7272,4.944535 z m 9.000078,0 -0.567267,-1.591733 h -2.235201 l -0.5588,1.591733 H 81.34586 l 2.218268,-6.070602 h 1.2446 l 2.218268,6.070602 z m -1.354667,-4.030134 q -0.03387,-0.1016 -0.1016,-0.321734 -0.06773,-0.2286 -0.135467,-0.465667 -0.05927,-0.245533 -0.09313,-0.389467 -0.04233,0.186267 -0.1016,0.414867 -0.0508,0.220134 -0.110066,0.423334 -0.0508,0.194733 -0.09313,0.338667 l -0.524933,1.507067 h 1.6764 z m 5.063075,-2.015068 q 0.778934,0 1.286934,0.194733 0.516467,0.194734 0.762,0.584201 0.254,0.381 0.254,0.9652 0,0.440267 -0.160866,0.753534 -0.1524,0.313267 -0.414867,0.524933 -0.254,0.2032 -0.5588,0.338667 l 1.693334,2.683934 h -1.253068 l -1.397,-2.3876 H 88.88967 v 2.3876 h -1.100667 v -6.045202 z m -0.03387,0.880534 h -0.65193 v 1.913467 h 0.677333 q 0.592667,0 0.889001,-0.245533 0.3048,-0.245534 0.3048,-0.753534 0,-0.321733 -0.127,-0.516467 -0.127,-0.2032 -0.397934,-0.296333 -0.270933,-0.1016 -0.694267,-0.1016 z"
       id="text1-9-5-7-1"
       aria-label="MAR" />
    <path
       style="-inkscape-font-specification:'Noto Sans Semi-Bold';stroke-width:0.405694;stroke-linecap:round;stroke-linejoin:bevel;paint-order:stroke fill markers"
       d="m -91.776793,48.971088 v -6.045202 h 1.100667 v 5.122335 h 2.514601 v 0.922867 z"
       id="text2-6-1-7-2"
       transform="scale(-1,1)"
       aria-label="L" />
    <g
       id="text5-8-0-6"
       style="font-weight:100;font-size:4.23333px;font-family:'Noto Sans Armenian';-inkscape-font-specification:'Noto Sans Armenian Thin';stroke-width:0;stroke-linecap:round;stroke-linejoin:bevel;paint-order:stroke fill markers"
       aria-label="Marburg Study&#10;Support Chatbot">
      <path
         style="-inkscape-font-specification:'Noto Sans Light'"
         d="m 95.990312,37.4641 -1.087966,-2.764364 h -0.0127 q 0.0085,0.0762 0.0085,0.173566 0.0042,0.09313 0.0042,0.198967 0.0042,0.101599 0.0042,0.211666 V 37.4641 h -0.2286 v -3.022598 h 0.3683 l 1.041399,2.650065 h 0.01693 l 1.0541,-2.650065 h 0.359833 V 37.4641 h -0.2413 v -2.205565 q 0,-0.09313 0,-0.1905 0.0042,-0.09737 0.0085,-0.1905 0.0042,-0.09313 0.0085,-0.173566 h -0.0127 l -1.09223,2.760131 z m 3.124196,-2.290232 q 0.381,0 0.567266,0.186267 0.186267,0.186266 0.186267,0.592666 V 37.4641 h -0.182034 l -0.04233,-0.381 h -0.0127 q -0.08043,0.127 -0.186266,0.224367 -0.1016,0.09313 -0.249767,0.148166 -0.143933,0.0508 -0.3556,0.0508 -0.211666,0 -0.368299,-0.07197 -0.156633,-0.0762 -0.2413,-0.2159 -0.08467,-0.1397 -0.08467,-0.3429 0,-0.334433 0.275167,-0.508 0.275166,-0.177799 0.800099,-0.203199 l 0.410633,-0.01693 v -0.160866 q 0,-0.334433 -0.135466,-0.4699 -0.131234,-0.1397 -0.3937,-0.1397 -0.173567,0 -0.334433,0.04657 -0.156633,0.04233 -0.3175,0.122766 l -0.0762,-0.190499 q 0.156633,-0.08043 0.347133,-0.131234 0.1905,-0.0508 0.3937,-0.0508 z m 0.131233,1.168399 q -0.427566,0.02117 -0.639233,0.1524 -0.211666,0.127 -0.211666,0.385233 0,0.207434 0.131233,0.3175 0.131233,0.105833 0.3556,0.105833 0.359833,0 0.550333,-0.198966 0.194733,-0.198967 0.198966,-0.5588 v -0.220133 z m 2.264829,-1.168399 q 0.0847,0 0.16087,0.0127 0.0804,0.0085 0.14393,0.0254 l -0.0339,0.220134 q -0.0677,-0.01693 -0.13546,-0.0254 -0.0677,-0.0127 -0.14817,-0.0127 -0.1524,0 -0.27517,0.05927 -0.12276,0.05927 -0.21166,0.169333 -0.0889,0.110067 -0.13547,0.262467 -0.0466,0.1524 -0.0466,0.3429 V 37.4641 h -0.2413 v -2.252132 h 0.2032 l 0.0254,0.423333 h 0.0127 q 0.055,-0.131233 0.14817,-0.232833 0.0974,-0.105833 0.23283,-0.1651 0.13547,-0.0635 0.30057,-0.0635 z m 0.98213,-0.0381 q 0,0.122766 -0.004,0.262466 -0.004,0.135467 -0.0127,0.224366 h 0.0169 q 0.0847,-0.194733 0.27516,-0.321733 0.19474,-0.131233 0.49107,-0.131233 0.4318,0 0.6731,0.296333 0.24553,0.2921 0.24553,0.867833 0,0.3556 -0.11006,0.618066 -0.10584,0.262466 -0.32174,0.410633 -0.21166,0.143933 -0.5207,0.143933 -0.28363,0 -0.46566,-0.118533 -0.1778,-0.118533 -0.26247,-0.287866 h -0.0212 l -0.0466,0.364066 h -0.1778 v -3.217331 h 0.2413 z m 0.73236,0.241299 q -0.25823,0 -0.42333,0.110067 -0.16087,0.110066 -0.23707,0.321733 -0.072,0.211666 -0.072,0.524933 v 0.02963 q 0,0.4572 0.16086,0.6985 0.1651,0.237066 0.54187,0.237066 0.36407,0 0.5461,-0.249766 0.18627,-0.249767 0.18627,-0.715433 0,-0.478366 -0.17357,-0.715433 -0.17357,-0.2413 -0.52917,-0.2413 z m 3.34011,-0.1651 V 37.4641 h -0.19897 l -0.0339,-0.385233 h -0.0127 q -0.0593,0.122766 -0.16933,0.220133 -0.10583,0.09737 -0.254,0.1524 -0.14817,0.05503 -0.3429,0.05503 -0.26247,0 -0.44027,-0.0889 -0.17356,-0.09313 -0.26246,-0.275166 -0.0889,-0.182033 -0.0889,-0.452966 v -1.477433 h 0.2413 v 1.456266 q 0,0.321733 0.14393,0.478366 0.14817,0.1524 0.4318,0.1524 0.24977,0 0.41487,-0.09313 0.1651,-0.09737 0.24553,-0.287867 0.0847,-0.190499 0.0847,-0.474133 v -1.231899 z m 1.67216,-0.0381 q 0.0847,0 0.16087,0.0127 0.0804,0.0085 0.14393,0.0254 l -0.0339,0.220134 q -0.0677,-0.01693 -0.13547,-0.0254 -0.0677,-0.0127 -0.14817,-0.0127 -0.1524,0 -0.27516,0.05927 -0.12277,0.05927 -0.21167,0.169333 -0.0889,0.110067 -0.13547,0.262467 -0.0466,0.1524 -0.0466,0.3429 V 37.4641 h -0.2413 v -2.252132 h 0.2032 l 0.0254,0.423333 h 0.0127 q 0.055,-0.131233 0.14816,-0.232833 0.0974,-0.105833 0.23284,-0.1651 0.13546,-0.0635 0.30056,-0.0635 z m 1.52823,-0.0042 q 0.2667,0 0.44027,0.105833 0.17356,0.1016 0.2794,0.2794 h 0.0169 l 0.0339,-0.3429 h 0.19473 v 2.324098 q 0,0.296334 -0.1016,0.503767 -0.1016,0.211666 -0.3175,0.325966 -0.21167,0.1143 -0.55457,0.1143 -0.24976,0 -0.44873,-0.04233 -0.19473,-0.04233 -0.35136,-0.110067 v -0.232833 q 0.15663,0.08043 0.36406,0.127 0.20743,0.0508 0.44873,0.0508 0.37254,0 0.5461,-0.194733 0.1778,-0.194733 0.1778,-0.524933 v -0.135467 q 0,-0.0889 0,-0.1778 0.004,-0.09313 0.008,-0.173566 h -0.0127 q -0.0974,0.2159 -0.28787,0.3302 -0.1905,0.110066 -0.46566,0.110066 -0.43604,0 -0.68157,-0.296333 -0.24553,-0.296333 -0.24553,-0.850899 0,-0.550333 0.24553,-0.867833 0.24977,-0.321733 0.7112,-0.321733 z m 0.0254,0.207433 q -0.24553,0 -0.41063,0.118534 -0.16087,0.114299 -0.2413,0.334433 -0.0804,0.215899 -0.0804,0.529166 0,0.461433 0.18204,0.702733 0.18203,0.241299 0.5207,0.241299 0.2159,0 0.3556,-0.0635 0.1397,-0.06773 0.22013,-0.186266 0.0847,-0.118533 0.11853,-0.2794 0.0381,-0.1651 0.0381,-0.351366 v -0.148167 q 0,-0.287866 -0.0677,-0.486833 -0.0677,-0.198966 -0.22437,-0.304799 -0.1524,-0.105834 -0.41063,-0.105834 z m 4.5085,1.303866 q 0,0.270933 -0.13546,0.457199 -0.13124,0.182034 -0.3683,0.275167 -0.23707,0.09313 -0.53764,0.09313 -0.18626,0 -0.33443,-0.02117 -0.14817,-0.01693 -0.27093,-0.04233 -0.12277,-0.02963 -0.22014,-0.06773 v -0.245533 q 0.16087,0.0635 0.37254,0.1143 0.21166,0.04657 0.46566,0.04657 0.23284,0 0.4064,-0.06773 0.1778,-0.06773 0.27517,-0.198966 0.1016,-0.131234 0.1016,-0.3302 0,-0.182033 -0.0847,-0.296333 -0.0804,-0.1143 -0.254,-0.198967 -0.16933,-0.0889 -0.43603,-0.1778 -0.1905,-0.06773 -0.3429,-0.139699 -0.14817,-0.07197 -0.254,-0.169334 -0.10583,-0.09737 -0.16087,-0.228599 -0.055,-0.131234 -0.055,-0.3175 0,-0.249767 0.127,-0.4191 0.127,-0.169333 0.3429,-0.258233 0.22013,-0.0889 0.4953,-0.0889 0.22013,0 0.4191,0.04233 0.19897,0.0381 0.37677,0.118534 l -0.0804,0.211666 q -0.1778,-0.0762 -0.35983,-0.1143 -0.18203,-0.0381 -0.36407,-0.0381 -0.21166,0 -0.37253,0.0635 -0.15663,0.05927 -0.24553,0.182033 -0.0889,0.118534 -0.0889,0.296333 0,0.194734 0.0847,0.313267 0.0847,0.118533 0.24554,0.198966 0.16086,0.0762 0.3937,0.156634 0.2667,0.09313 0.4572,0.198966 0.19473,0.1016 0.29633,0.254 0.10583,0.1524 0.10583,0.397933 z m 1.22343,0.622299 q 0.0931,0 0.1778,-0.0127 0.0847,-0.01693 0.14817,-0.0381 v 0.194734 q -0.0635,0.0254 -0.16087,0.04233 -0.0931,0.01693 -0.19896,0.01693 -0.18627,0 -0.3175,-0.06773 -0.13124,-0.07197 -0.2032,-0.220133 -0.0677,-0.148167 -0.0677,-0.381 v -1.430865 h -0.3302 v -0.135467 l 0.3302,-0.0762 0.0889,-0.520699 h 0.1524 v 0.537632 h 0.69427 v 0.194734 h -0.69427 V 36.8291 q 0,0.232834 0.0931,0.3556 0.0931,0.118533 0.28786,0.118533 z m 2.5781,-2.091265 v 2.2521 h -0.19897 l -0.0339,-0.385233 h -0.0127 q -0.0593,0.122766 -0.16934,0.220133 -0.10583,0.09737 -0.254,0.1524 -0.14816,0.05503 -0.34289,0.05503 -0.26247,0 -0.44027,-0.0889 -0.17357,-0.09313 -0.26247,-0.275166 -0.0889,-0.182033 -0.0889,-0.452966 v -1.477433 h 0.2413 v 1.456266 q 0,0.321733 0.14394,0.478366 0.14816,0.1524 0.4318,0.1524 0.24976,0 0.41486,-0.09313 0.1651,-0.09737 0.24553,-0.287867 0.0847,-0.190499 0.0847,-0.474133 v -1.231899 z m 1.55787,2.294465 q -0.45297,0 -0.6985,-0.287866 -0.2413,-0.2921 -0.2413,-0.855133 0,-0.584199 0.254,-0.888999 0.25823,-0.3048 0.70697,-0.3048 0.1905,0 0.3302,0.05927 0.1397,0.05503 0.23706,0.1524 0.1016,0.09737 0.15664,0.220133 h 0.0169 q -0.004,-0.1016 -0.0127,-0.220133 -0.004,-0.122767 -0.004,-0.220134 v -0.914399 h 0.2413 V 37.4641 h -0.19474 l -0.0339,-0.3937 h -0.0127 q -0.0593,0.118533 -0.15664,0.220133 -0.0974,0.09737 -0.2413,0.156634 -0.14393,0.05927 -0.34713,0.05927 z m 0.0296,-0.207433 q 0.3937,0 0.55457,-0.237066 0.1651,-0.237067 0.1651,-0.6858 v -0.0381 q 0,-0.465666 -0.1651,-0.711199 -0.16087,-0.249767 -0.53763,-0.249767 -0.36407,0 -0.55034,0.258233 -0.18626,0.254 -0.18626,0.732366 0,0.4572 0.1778,0.694267 0.1778,0.237066 0.54186,0.237066 z M 121.0135,35.212 h 0.25823 l 0.5334,1.401233 q 0.0466,0.122766 0.0847,0.228599 0.0381,0.105834 0.0677,0.198967 0.0296,0.0889 0.0508,0.1651 h 0.0127 q 0.0296,-0.09737 0.0804,-0.249767 0.0508,-0.156633 0.11854,-0.338666 L 122.7449,35.212 h 0.25823 l -1.016,2.654298 q -0.0762,0.194733 -0.16933,0.334433 -0.0931,0.1397 -0.22013,0.211667 -0.127,0.0762 -0.3048,0.0762 -0.0804,0 -0.14817,-0.0127 -0.0635,-0.0085 -0.12276,-0.0254 v -0.2032 q 0.055,0.0127 0.11006,0.02117 0.0593,0.0127 0.13124,0.0127 0.11853,0 0.20743,-0.0508 0.0889,-0.04657 0.15663,-0.148167 0.0677,-0.09737 0.12277,-0.245533 l 0.14816,-0.381 z"
         id="path1" />
      <path
         style="-inkscape-font-specification:'Noto Sans Light'"
         d="m 96.350145,41.972596 q 0,0.270933 -0.135467,0.4572 -0.131233,0.182033 -0.3683,0.275166 -0.237066,0.09313 -0.537633,0.09313 -0.186266,0 -0.334433,-0.02117 -0.148166,-0.01693 -0.270933,-0.04233 -0.122766,-0.02963 -0.220133,-0.06773 v -0.245533 q 0.160867,0.0635 0.372533,0.1143 0.211667,0.04657 0.465666,0.04657 0.232834,0 0.4064,-0.06773 0.1778,-0.06773 0.275166,-0.198966 0.1016,-0.131233 0.1016,-0.3302 0,-0.182033 -0.08467,-0.296333 -0.08043,-0.1143 -0.254,-0.198967 -0.169333,-0.0889 -0.436033,-0.177799 -0.1905,-0.06773 -0.3429,-0.1397 -0.148166,-0.07197 -0.253999,-0.169333 -0.105834,-0.09737 -0.160867,-0.2286 -0.05503,-0.131233 -0.05503,-0.3175 0,-0.249766 0.127,-0.4191 0.127,-0.169333 0.342899,-0.258233 0.220134,-0.0889 0.4953,-0.0889 0.220133,0 0.4191,0.04233 0.198966,0.0381 0.376766,0.118533 l -0.08043,0.211666 q -0.1778,-0.0762 -0.359833,-0.1143 -0.182034,-0.0381 -0.364067,-0.0381 -0.211666,0 -0.372533,0.0635 -0.156633,0.05927 -0.245533,0.182034 -0.0889,0.118533 -0.0889,0.296333 0,0.194733 0.08467,0.313266 0.08467,0.118533 0.245533,0.198967 0.160866,0.0762 0.3937,0.156633 0.266699,0.09313 0.457199,0.198966 0.194733,0.1016 0.296333,0.254 0.105834,0.1524 0.105834,0.397933 z m 2.362196,-1.468965 v 2.252131 h -0.198967 l -0.03387,-0.385233 h -0.0127 q -0.05927,0.122767 -0.169333,0.220133 -0.105833,0.09737 -0.253999,0.1524 -0.148167,0.05503 -0.3429,0.05503 -0.262467,0 -0.440266,-0.0889 -0.173567,-0.09313 -0.262467,-0.275166 -0.0889,-0.182033 -0.0889,-0.452966 v -1.477432 h 0.2413 v 1.456265 q 0,0.321733 0.143933,0.478366 0.148167,0.1524 0.4318,0.1524 0.249766,0 0.414866,-0.09313 0.1651,-0.09737 0.245533,-0.287866 0.08467,-0.1905 0.08467,-0.474133 v -1.231899 z m 1.756839,-0.04233 q 0.4318,0 0.67309,0.2921 0.24554,0.2921 0.24554,0.863599 0,0.381 -0.1143,0.6477 -0.1143,0.262466 -0.32597,0.397933 -0.20743,0.135466 -0.49953,0.135466 -0.19897,0 -0.34713,-0.05927 -0.148171,-0.05927 -0.245537,-0.156633 -0.09737,-0.09737 -0.1524,-0.2159 h -0.01693 q 0.0085,0.105833 0.0127,0.232833 0.0042,0.122766 0.0042,0.2286 v 0.927099 h -0.2413 v -3.251197 h 0.198966 l 0.02963,0.423333 h 0.0127 q 0.05503,-0.122767 0.156633,-0.2286 0.1016,-0.105833 0.249768,-0.169333 0.1524,-0.06773 0.35984,-0.06773 z m -0.0339,0.207434 q -0.24977,0 -0.41063,0.105833 -0.160871,0.105833 -0.241304,0.313266 -0.08043,0.2032 -0.08043,0.503766 v 0.04233 q 0,0.317499 0.0762,0.533399 0.08043,0.211667 0.237064,0.3175 0.16087,0.105833 0.40217,0.105833 0.23706,0 0.3937,-0.1143 0.16086,-0.118533 0.24129,-0.334433 0.0847,-0.220133 0.0847,-0.524933 0,-0.461433 -0.17357,-0.702732 -0.17356,-0.245533 -0.52916,-0.245533 z m 2.56963,-0.207434 q 0.4318,0 0.6731,0.2921 0.24554,0.2921 0.24554,0.863599 0,0.381 -0.1143,0.6477 -0.1143,0.262466 -0.32597,0.397933 -0.20743,0.135466 -0.49953,0.135466 -0.19897,0 -0.34714,-0.05927 -0.14816,-0.05927 -0.24553,-0.156633 -0.0974,-0.09737 -0.1524,-0.2159 h -0.0169 q 0.008,0.105833 0.0127,0.232833 0.004,0.122766 0.004,0.2286 v 0.927099 h -0.2413 v -3.251197 h 0.19897 l 0.0296,0.423333 h 0.0127 q 0.055,-0.122767 0.15663,-0.2286 0.1016,-0.105833 0.24977,-0.169333 0.1524,-0.06773 0.35983,-0.06773 z m -0.0339,0.207434 q -0.24977,0 -0.41064,0.105833 -0.16086,0.105833 -0.2413,0.313266 -0.0804,0.2032 -0.0804,0.503766 v 0.04233 q 0,0.317499 0.0762,0.533399 0.0804,0.211667 0.23707,0.3175 0.16086,0.105833 0.40216,0.105833 0.23707,0 0.3937,-0.1143 0.16087,-0.118533 0.2413,-0.334433 0.0847,-0.220133 0.0847,-0.524933 0,-0.461433 -0.17357,-0.702732 -0.17356,-0.245533 -0.52916,-0.245533 z m 3.44593,0.960965 q 0,0.262467 -0.0677,0.478367 -0.0635,0.211666 -0.19474,0.368299 -0.127,0.1524 -0.31749,0.237067 -0.1905,0.08467 -0.43604,0.08467 -0.23283,0 -0.4191,-0.08043 -0.18203,-0.08467 -0.31326,-0.237066 -0.13124,-0.156634 -0.19897,-0.372533 -0.0677,-0.2159 -0.0677,-0.478367 0,-0.368299 0.11853,-0.626532 0.12277,-0.262467 0.35137,-0.402167 0.23283,-0.1397 0.55033,-0.1397 0.32173,0 0.54186,0.148167 0.22437,0.143933 0.33867,0.4064 0.1143,0.262466 0.1143,0.613832 z m -1.7653,0 q 0,0.287867 0.0804,0.508 0.0804,0.2159 0.24976,0.334433 0.16934,0.118533 0.42334,0.118533 0.26246,0 0.4318,-0.118533 0.16933,-0.122767 0.24976,-0.338666 0.0804,-0.220134 0.0804,-0.503767 0,-0.283633 -0.0762,-0.499533 -0.0762,-0.215899 -0.24129,-0.338666 -0.1651,-0.122766 -0.4318,-0.122766 -0.38524,0 -0.57574,0.253999 -0.1905,0.254 -0.1905,0.706966 z m 3.302,-1.164165 q 0.0847,0 0.16087,0.0127 0.0804,0.0085 0.14393,0.0254 l -0.0339,0.220133 q -0.0677,-0.01693 -0.13546,-0.0254 -0.0677,-0.0127 -0.14817,-0.0127 -0.1524,0 -0.27517,0.05927 -0.12276,0.05927 -0.21166,0.169334 -0.0889,0.110066 -0.13547,0.262466 -0.0466,0.1524 -0.0466,0.3429 v 1.236132 h -0.2413 v -2.252131 h 0.2032 l 0.0254,0.423333 h 0.0127 q 0.055,-0.131234 0.14817,-0.232833 0.0974,-0.105834 0.23283,-0.1651 0.13547,-0.0635 0.30057,-0.0635 z m 1.38006,2.129365 q 0.0931,0 0.1778,-0.0127 0.0847,-0.01693 0.14817,-0.0381 v 0.194733 q -0.0635,0.0254 -0.16087,0.04233 -0.0931,0.01693 -0.19896,0.01693 -0.18627,0 -0.3175,-0.06773 -0.13124,-0.07197 -0.2032,-0.220133 -0.0677,-0.148167 -0.0677,-0.381 v -1.430865 h -0.3302 v -0.135467 l 0.3302,-0.0762 0.0889,-0.520699 h 0.1524 v 0.537633 h 0.69427 v 0.194733 h -0.69427 v 1.422399 q 0,0.232833 0.0931,0.355599 0.0931,0.118534 0.28786,0.118534 z m 3.24273,-2.683932 q -0.27939,0 -0.50376,0.09737 -0.22013,0.09313 -0.37253,0.270933 -0.1524,0.173567 -0.23284,0.4191 -0.0804,0.2413 -0.0804,0.537633 0,0.406399 0.127,0.711199 0.127,0.300567 0.381,0.465666 0.25823,0.1651 0.63923,0.1651 0.22013,0 0.4064,-0.03387 0.18627,-0.03387 0.3429,-0.08467 v 0.211667 q -0.1524,0.05927 -0.3429,0.09313 -0.18627,0.03387 -0.43603,0.03387 -0.45297,0 -0.762,-0.194733 -0.3048,-0.194733 -0.46143,-0.546099 -0.1524,-0.351367 -0.1524,-0.821266 0,-0.334433 0.0974,-0.618066 0.0974,-0.283634 0.28364,-0.491067 0.18626,-0.207433 0.45296,-0.321733 0.27094,-0.1143 0.61807,-0.1143 0.2159,0 0.41486,0.04233 0.2032,0.04233 0.37677,0.122766 l -0.0974,0.2159 q -0.16086,-0.08043 -0.33866,-0.118533 -0.17357,-0.04233 -0.35984,-0.04233 z m 1.5367,0.6604 q 0,0.08467 -0.004,0.1651 -0.004,0.08043 -0.008,0.160866 h 0.0169 q 0.0593,-0.127 0.1651,-0.224366 0.10584,-0.09737 0.254,-0.1524 0.1524,-0.05503 0.3429,-0.05503 0.25824,0 0.43604,0.0889 0.1778,0.08467 0.2667,0.266699 0.0931,0.1778 0.0931,0.465667 v 1.468965 h -0.23707 v -1.456265 q 0,-0.325967 -0.14816,-0.478367 -0.14817,-0.152399 -0.43604,-0.152399 -0.24553,0 -0.41063,0.09737 -0.1651,0.09313 -0.24977,0.287867 -0.0804,0.190499 -0.0804,0.474132 v 1.227666 h -0.23707 v -3.217331 h 0.23707 z m 3.08187,-0.105833 q 0.381,0 0.56726,0.186266 0.18627,0.186267 0.18627,0.592666 v 1.511299 h -0.18203 l -0.0423,-0.381 h -0.0127 q -0.0804,0.127 -0.18626,0.224367 -0.1016,0.09313 -0.24977,0.148166 -0.14393,0.0508 -0.3556,0.0508 -0.21167,0 -0.3683,-0.07197 -0.15663,-0.0762 -0.2413,-0.2159 -0.0847,-0.1397 -0.0847,-0.3429 0,-0.334433 0.27516,-0.507999 0.27517,-0.1778 0.8001,-0.2032 l 0.41063,-0.01693 v -0.16087 q 0,-0.334433 -0.13546,-0.4699 -0.13124,-0.139699 -0.3937,-0.139699 -0.17357,0 -0.33444,0.04657 -0.15663,0.04233 -0.3175,0.122767 l -0.0762,-0.1905 q 0.15664,-0.08043 0.34714,-0.131233 0.1905,-0.0508 0.3937,-0.0508 z m 0.13123,1.168399 q -0.42757,0.02117 -0.63923,0.1524 -0.21167,0.126999 -0.21167,0.385233 0,0.207433 0.13123,0.317499 0.13124,0.105834 0.3556,0.105834 0.35984,0 0.55034,-0.198967 0.19473,-0.198966 0.19896,-0.558799 V 41.617 Z m 1.97696,0.960966 q 0.0931,0 0.1778,-0.0127 0.0847,-0.01693 0.14817,-0.0381 v 0.194733 q -0.0635,0.0254 -0.16087,0.04233 -0.0931,0.01693 -0.19896,0.01693 -0.18627,0 -0.3175,-0.06773 -0.13124,-0.07197 -0.2032,-0.220133 -0.0677,-0.148167 -0.0677,-0.381 v -1.430865 h -0.3302 v -0.135467 l 0.3302,-0.0762 0.0889,-0.520699 h 0.1524 v 0.537633 h 0.69427 v 0.194733 h -0.69427 v 1.422399 q 0,0.232833 0.0931,0.355599 0.0931,0.118534 0.28786,0.118534 z m 1.0414,-2.167465 q 0,0.122766 -0.004,0.262466 -0.004,0.135467 -0.0127,0.224367 h 0.0169 q 0.0847,-0.194734 0.27517,-0.321733 0.19473,-0.131234 0.49107,-0.131234 0.4318,0 0.6731,0.296333 0.24553,0.2921 0.24553,0.867833 0,0.3556 -0.11007,0.618066 -0.10583,0.262467 -0.32173,0.410633 -0.21167,0.143933 -0.5207,0.143933 -0.28363,0 -0.46567,-0.118533 -0.1778,-0.118533 -0.26246,-0.287866 h -0.0212 l -0.0466,0.364066 h -0.1778 v -3.217331 h 0.2413 z m 0.73237,0.2413 q -0.25823,0 -0.42333,0.110066 -0.16087,0.110067 -0.23707,0.321733 -0.072,0.211667 -0.072,0.524933 v 0.02963 q 0,0.4572 0.16087,0.6985 0.1651,0.237066 0.54187,0.237066 0.36406,0 0.5461,-0.249766 0.18626,-0.249767 0.18626,-0.715433 0,-0.478366 -0.17356,-0.715433 -0.17357,-0.241299 -0.52917,-0.241299 z m 3.45017,0.960965 q 0,0.262467 -0.0677,0.478367 -0.0635,0.211666 -0.19473,0.368299 -0.127,0.1524 -0.3175,0.237067 -0.1905,0.08467 -0.43603,0.08467 -0.23284,0 -0.4191,-0.08043 -0.18204,-0.08467 -0.31327,-0.237066 -0.13123,-0.156634 -0.19896,-0.372533 -0.0677,-0.2159 -0.0677,-0.478367 0,-0.368299 0.11854,-0.626532 0.12276,-0.262467 0.35136,-0.402167 0.23283,-0.1397 0.55033,-0.1397 0.32174,0 0.54187,0.148167 0.22437,0.143933 0.33867,0.4064 0.1143,0.262466 0.1143,0.613832 z m -1.7653,0 q 0,0.287867 0.0804,0.508 0.0804,0.2159 0.24977,0.334433 0.16933,0.118533 0.42333,0.118533 0.26247,0 0.4318,-0.118533 0.16933,-0.122767 0.24977,-0.338666 0.0804,-0.220134 0.0804,-0.503767 0,-0.283633 -0.0762,-0.499533 -0.0762,-0.215899 -0.2413,-0.338666 -0.1651,-0.122766 -0.4318,-0.122766 -0.38523,0 -0.57573,0.253999 -0.1905,0.254 -0.1905,0.706966 z m 3.01413,0.9652 q 0.0931,0 0.1778,-0.0127 0.0847,-0.01693 0.14816,-0.0381 v 0.194733 q -0.0635,0.0254 -0.16086,0.04233 -0.0931,0.01693 -0.19897,0.01693 -0.18627,0 -0.3175,-0.06773 -0.13123,-0.07197 -0.2032,-0.220133 -0.0677,-0.148167 -0.0677,-0.381 v -1.430865 h -0.3302 v -0.135467 l 0.3302,-0.0762 0.0889,-0.520699 h 0.1524 v 0.537633 h 0.69426 v 0.194733 h -0.69426 v 1.422399 q 0,0.232833 0.0931,0.355599 0.0931,0.118534 0.28787,0.118534 z"
         id="path2" />
    </g>
  </g>
</svg>
